<?xml version="1.0" encoding="utf-8"?>
<!-- Generator: Adobe Illustrator 19.2.1, SVG Export Plug-In . SVG Version: 6.00 Build 0)  -->
<svg version="1.1" id="Calque_1" xmlns="http://www.w3.org/2000/svg" xmlns:xlink="http://www.w3.org/1999/xlink" x="0px" y="0px"
	 viewBox="0 0 561.3 124.7" style="enable-background:new 0 0 561.3 124.7;" xml:space="preserve">
<style type="text/css">
	.st0{fill:#FFFFFF;}
</style>
<g>
	<path class="st0" d="M0,0v124.7h49.9c-15.1-16.3-24.4-38.2-24.4-62.2c0-24.2,9.4-46.2,24.7-62.5C50.2,0,0,0,0,0z"/>
</g>
<g>
	<path class="st0" d="M304.2,42.5c-4.1,0-7.4,3.9-7.5,23h13.8v-0.6C310.5,46.1,309.1,42.5,304.2,42.5z"/>
	<path class="st0" d="M468.1,42.5c-4.1,0-7.4,3.9-7.5,23h13.8v-0.6C474.4,46.1,473,42.5,468.1,42.5z"/>
	<path class="st0" d="M183.9,0c15.3,16.4,24.7,38.3,24.7,62.5c0,24-9.3,45.9-24.4,62.2h377.1V0H183.9z M278.4,104.2h-31.9v-2.1
		l1.8-0.5c3.6-1.1,4-1.3,4-7.4V58.8c0-6.5-2.4-8.3-6.1-8.3c-2.9,0-5.9,1.4-7.7,2.2v41.6c0,6.2,0.5,6.3,4,7.4l1.7,0.5v2.1h-31.7v-2.1
		l1.8-0.6c4.1-1.3,4.3-1.7,4.3-7.3V30c0-6.5,0.1-7-3.3-8.4l-3.4-1.3v-1.6l26.4-3.6v15.4v18.7c4.8-4.7,11.5-10.1,19.6-10.1
		c7.9,0,14,4.6,14,15.2v40c0,5.7,0.4,5.9,4.5,7.3l1.8,0.6v2H278.4z M314,94.7c5.6,0,10.3-2.1,14.3-4.5l1.4,1.4
		c-3.3,5.8-12.7,14.1-24.7,14.1c-18.4,0-28.2-10.9-28.2-32.4c0-23.6,14.7-34.2,28.3-34.2c15.1,0,24.5,7.9,25.1,29.5h-33.5
		C296.9,89.6,303.2,94.7,314,94.7z M426.9,52.5c-0.6-1.7-0.8-2.2-2.2-2.2c-1.3,0-3.8,1.8-4.7,2.9v41.1c0,6,0.6,6.4,4.2,7.3
		c0.9,0.2,2.8,0.5,2.8,0.5v2.2h-33l0,0l-25.2,1.4V95.1c-3.3,4.5-9.6,10.6-18.7,10.6s-14.9-5.1-14.9-15.3V53.9c0-5.4-0.4-6.2-3.3-8
		l-3.3-2v-1.2l26.3-3.6v46.2c0,6.6,1.7,8.8,6.7,8.8c2.4,0,5.7-1.5,7.1-2.3V53.9c0-5.4-0.3-6-3.7-8l-3.4-2v-1.2l27-3.6v53.7
		c0,6.4,0.3,7.6,3.6,8.9c0.4,0.1,1.3,0.3,1.8,0.3c4.6,0,6.2-2.5,6.2-8.1V53.6c0-4.9-0.3-5.9-3.3-7.7l-3.3-2v-1.2l26.3-3.6v10.6
		c3-4.7,7.1-10.5,14.6-10.5c5.4,0,8.6,3.9,8.6,9.5c0,5.9-3.6,9.3-8.6,9.3C430,58.1,428.2,56.3,426.9,52.5z M477.9,94.7
		c5.6,0,10.3-2.1,14.3-4.5l1.4,1.4c-3.3,5.8-12.7,14.1-24.7,14.1c-18.4,0-28.2-10.9-28.2-32.4c0-23.6,14.7-34.2,28.3-34.2
		c15.1,0,24.5,7.9,25.1,29.5h-33.5C460.8,89.6,467.1,94.7,477.9,94.7z M515.2,105.7c-6.4,0-12.6-1.1-16.9-2.7l-0.7-19.6h1.9
		c2.5,6,4.3,10.6,7,13.9c3.1,3.8,6.2,4.7,10,4.7c5,0,8.6-3.2,8.6-8.5c0-6.4-2.4-8.3-13.4-12.8c-9.3-3.7-14.4-10.1-14.4-20.5
		c0-9.7,7.3-21.2,23.4-21.2c6.5,0,12.2,1.5,14.6,2.5l0.8,17h-1.8c-2.2-4.4-4.8-9.1-6.9-11.7c-2.8-3.3-5-4.2-8.2-4.2
		c-4.8,0-8.7,2.4-8.7,7.3c0,5.7,3.3,8.2,11.5,11.5c14,5.6,17.6,12.3,17.6,21.7C539.7,96.1,531.4,105.7,515.2,105.7z"/>
</g>
<path class="st0" d="M175.8,81.1h11.9l0.6-7.3h-12.6v-61H155l-47.3,63.7v4.7h41.8V93c0,9.5-1.2,9.9-6.5,11.1l-4.1,0.9v4.6h47.7V105
	l-4.4-0.9c-5.2-1.1-6.5-1.7-6.5-11.1L175.8,81.1z M149.4,73.8h-30.2L149.4,33V73.8z"/>
<path class="st0" d="M49.6,33.2c0,7.5,4.5,13.1,13,13.1c6.3,0,12.3-3.2,12.9-9.5c0.1-0.9,0.1-1.7,0-2.5c-0.4-3.4-2.8-5.3-4.1-7.2
	c-1.3-1.8-1.8-3.2-1.2-4.9c0.4-1.4,1.8-2.4,3.7-3c3.8-1.3,7.5-0.4,10.6,1.3c5,2.7,6.5,8.5,6.9,15.7c0.1,2.3,0.1,4.8-0.1,7.3
	c-0.8,11.1-5.9,21.8-14.8,31.4c-0.6,0.7-3.1,3.2-3.8,3.9L48.3,103l-0.3,0.7v6h68.6l1.9-21.5H72c11.1-7.4,45.5-28.7,45.5-50.5
	c0-12.4-6.3-20-16.9-23.7c-0.1,0-0.2-0.1-0.3-0.1c-0.1,0-0.1,0-0.2-0.1c-4.7-1.5-10.3-2.4-16.9-2.4h-0.1H83l0,0
	C61.4,11.5,49.6,23.7,49.6,33.2"/>
</svg>
