<?xml version="1.0" encoding="utf-8"?>
<!-- Generator: Adobe Illustrator 19.2.1, SVG Export Plug-In . SVG Version: 6.00 Build 0)  -->
<svg version="1.1" id="Calque_1" xmlns="http://www.w3.org/2000/svg" xmlns:xlink="http://www.w3.org/1999/xlink" x="0px" y="0px"
	 viewBox="0 0 170.1 94.5" style="enable-background:new 0 0 170.1 94.5;" xml:space="preserve">
<style type="text/css">
	.st0{fill:#222222;}
</style>
<title>24heures</title>
<g id="be23078f-35e7-4408-9a90-2f0eb8514e87">
	<g id="_x34_b1940d0-2537-47fa-be3c-9b777d44f6f1">
		<path class="st0" d="M0,0v94.5h34.2C9.4,67.8,9.5,26.6,34.4,0H0z M170.1,0v94.5h-34.2c24.7-26.7,24.6-67.9-0.2-94.5H170.1z"/>
		<path class="st0" d="M129.5,61.5h9L139,56h-9.5V9.7h-15.8L77.9,58v3.5h31.7v8.9c0,7.2-0.9,7.5-4.9,8.4l-3.1,0.7v3.5h36.2v-3.5
			l-3.3-0.7c-4-0.8-4.9-1.3-4.9-8.4L129.5,61.5z M109.5,56H86.7l22.9-30.9L109.5,56z"/>
		<path class="st0" d="M33.9,25.2c0,5.7,3.4,9.9,9.9,9.9c4.8,0,9.3-2.4,9.8-7.2c0.1-0.6,0.1-1.3,0-1.9c-0.3-2.6-2.1-4-3.1-5.4
			s-1.3-2.4-0.9-3.7c0.5-1.2,1.6-2,2.8-2.3c2.7-0.8,5.6-0.5,8,1c3.8,2.1,4.9,6.5,5.3,11.9c0.1,1.8,0.1,3.7-0.1,5.5
			c-0.6,8.4-4.5,16.5-11.2,23.7c-0.5,0.5-2.3,2.5-2.9,3L32.9,78l-0.2,0.5v4.6h52l1.4-16.3H50.9c8.4-5.6,34.5-21.8,34.5-38.3
			c0-9.4-4.8-15.2-12.8-17.9l-0.2-0.1h-0.2C68,9.2,63.7,8.6,59.4,8.7h-0.2C42.9,8.7,33.9,17.9,33.9,25.2z"/>
	</g>
</g>
</svg>
